#Comment line ignore any data following # character 
#Hierarchical Translation and Rotation (.htr) file 
[Header]	
#Header keywords are followed by a single value 
FileType HTR		#Single word string
DataType HTRS		#Translation followed by rotation and scale data
FileVersion 1		#integer
NumSegments 64		#integer
NumFrames 3		#integer
DataFrameRate 30		#integer, data frame rate in this file
EulerRotationOrder ZYX
CalibrationUnits mm
RotationUnits Degrees
GlobalAxisofGravity Y
BoneLengthAxis Y
ScaleFactor 1.00
[SegmentNames&Hierarchy]
#CHILD	PARENT
Pinger_Root GLOBAL
Pelvis Pinger_Root
L_Hip Pelvis
R_Hip Pelvis
Rear_Leg01 Pelvis
Spine1 Pelvis
L_Leg01 L_Hip
L_Leg02 L_Leg01
L_Leg03 L_Leg02
L_Foot L_Leg03
L_Toe1_01 L_Foot
L_Toe2_01 L_Foot
L_Toe3_01 L_Foot
planeAlignerLeft L_Foot
L_Toe1_02 L_Toe1_01
L_Toe1_03 L_Toe1_02
L_Toe2_02 L_Toe2_01
L_Toe2_03 L_Toe2_02
L_Toe3_02 L_Toe3_01
L_Toe3_03 L_Toe3_02
planeLockWeightLeft planeAlignerLeft
R_Leg01 R_Hip
R_Leg02 R_Leg01
R_Leg03 R_Leg02
R_Foot R_Leg03
planeAlignerRight R_Foot
R_Toe1_01 R_Foot
R_Toe2_01 R_Foot
R_Toe3_01 R_Foot
planeLockWeightRight planeAlignerRight
R_Toe1_02 R_Toe1_01
R_Toe1_03 R_Toe1_02
R_Toe2_02 R_Toe2_01
R_Toe2_03 R_Toe2_02
R_Toe3_02 R_Toe3_01
R_Toe3_03 R_Toe3_02
Rear_Leg02 Rear_Leg01
Rear_Leg03 Rear_Leg02
Rear_Leg04 Rear_Leg03
Rear_Foot Rear_Leg04
planeAlignerCenter Rear_Foot
Rear_Toe1_01 Rear_Foot
Rear_Toe2_01 Rear_Foot
Rear_Toe3_01 Rear_Foot
planeLockWeightCenter planeAlignerCenter
Rear_Toe1_02 Rear_Toe1_01
Rear_Toe1_03 Rear_Toe1_02
Rear_Toe2_02 Rear_Toe2_01
Rear_Toe2_03 Rear_Toe2_02
Rear_Toe3_02 Rear_Toe3_01
Rear_Toe3_03 Rear_Toe3_02
Back_Bone Spine1
Head Spine1
Motor_Bone Back_Bone
Ping_Mechanism Back_Bone
BN_LookIK Head
bottomMouth Head
L_Mouth01 Head
L_mouthFront Head
mouthGun Head
R_Mouth01 Head
R_mouthFront Head
TopMouth Head
weapon_bone Head
[BasePosition]
#SegmentName Tx, Ty, Tz, Rx, Ry, Rz, BoneLength
Pinger_Root 0.000000 0.000000 0.000000 -90.000000 0.000000 0.000000 10.000000 
Pelvis 0.000000 0.000000 0.000000 0.000000 0.000000 0.000000 10.000000 
L_Hip 0.000000 0.000000 0.000000 0.000000 0.000000 0.000000 10.000000 
R_Hip 0.000000 0.000000 0.000000 0.000000 0.000000 0.000000 10.000000 
Rear_Leg01 0.000000 0.000000 0.000000 0.000000 0.000000 0.000000 10.000000 
Spine1 0.000000 0.000000 0.000000 0.000000 0.000000 0.000000 10.000000 
L_Leg01 0.000000 0.000000 0.000000 0.000000 0.000000 0.000000 10.000000 
L_Leg02 0.000000 0.000000 0.000000 0.000000 0.000000 0.000000 10.000000 
L_Leg03 0.000000 0.000000 0.000000 0.000000 0.000000 0.000000 10.000000 
L_Foot 0.000000 0.000000 0.000000 0.000000 0.000000 0.000000 10.000000 
L_Toe1_01 0.000000 0.000000 0.000000 0.000000 0.000000 0.000000 10.000000 
L_Toe2_01 0.000000 0.000000 0.000000 0.000000 0.000000 0.000000 10.000000 
L_Toe3_01 0.000000 0.000000 0.000000 0.000000 0.000000 0.000000 10.000000 
planeAlignerLeft 0.000000 0.000000 0.000000 0.000000 0.000000 0.000000 10.000000 
L_Toe1_02 0.000000 0.000000 0.000000 0.000000 0.000000 0.000000 10.000000 
L_Toe1_03 0.000000 0.000000 0.000000 0.000000 0.000000 0.000000 10.000000 
L_Toe2_02 0.000000 0.000000 0.000000 0.000000 0.000000 0.000000 10.000000 
L_Toe2_03 0.000000 0.000000 0.000000 0.000000 0.000000 0.000000 10.000000 
L_Toe3_02 0.000000 0.000000 0.000000 0.000000 0.000000 0.000000 10.000000 
L_Toe3_03 0.000000 0.000000 0.000000 0.000000 0.000000 0.000000 10.000000 
planeLockWeightLeft 0.000000 0.000000 0.000000 0.000000 0.000000 0.000000 10.000000 
R_Leg01 0.000000 0.000000 0.000000 0.000000 0.000000 0.000000 10.000000 
R_Leg02 0.000000 0.000000 0.000000 0.000000 0.000000 0.000000 10.000000 
R_Leg03 0.000000 0.000000 0.000000 0.000000 0.000000 0.000000 10.000000 
R_Foot 0.000000 0.000000 0.000000 0.000000 0.000000 0.000000 10.000000 
planeAlignerRight 0.000000 0.000000 0.000000 0.000000 0.000000 0.000000 10.000000 
R_Toe1_01 0.000000 0.000000 0.000000 0.000000 0.000000 0.000000 10.000000 
R_Toe2_01 0.000000 0.000000 0.000000 0.000000 0.000000 0.000000 10.000000 
R_Toe3_01 0.000000 0.000000 0.000000 0.000000 0.000000 0.000000 10.000000 
planeLockWeightRight 0.000000 0.000000 0.000000 0.000000 0.000000 0.000000 10.000000 
R_Toe1_02 0.000000 0.000000 0.000000 0.000000 0.000000 0.000000 10.000000 
R_Toe1_03 0.000000 0.000000 0.000000 0.000000 0.000000 0.000000 10.000000 
R_Toe2_02 0.000000 0.000000 0.000000 0.000000 0.000000 0.000000 10.000000 
R_Toe2_03 0.000000 0.000000 0.000000 0.000000 0.000000 0.000000 10.000000 
R_Toe3_02 0.000000 0.000000 0.000000 0.000000 0.000000 0.000000 10.000000 
R_Toe3_03 0.000000 0.000000 0.000000 0.000000 0.000000 0.000000 10.000000 
Rear_Leg02 0.000000 0.000000 0.000000 0.000000 0.000000 0.000000 10.000000 
Rear_Leg03 0.000000 0.000000 0.000000 0.000000 0.000000 0.000000 10.000000 
Rear_Leg04 0.000000 0.000000 0.000000 0.000000 0.000000 0.000000 10.000000 
Rear_Foot 0.000000 0.000000 0.000000 0.000000 0.000000 0.000000 10.000000 
planeAlignerCenter 0.000000 0.000000 0.000000 0.000000 0.000000 0.000000 10.000000 
Rear_Toe1_01 0.000000 0.000000 0.000000 0.000000 0.000000 0.000000 10.000000 
Rear_Toe2_01 0.000000 0.000000 0.000000 0.000000 0.000000 0.000000 10.000000 
Rear_Toe3_01 0.000000 0.000000 0.000000 0.000000 0.000000 0.000000 10.000000 
planeLockWeightCenter 0.000000 0.000000 0.000000 0.000000 0.000000 0.000000 10.000000 
Rear_Toe1_02 0.000000 0.000000 0.000000 0.000000 0.000000 0.000000 10.000000 
Rear_Toe1_03 0.000000 0.000000 0.000000 0.000000 0.000000 0.000000 10.000000 
Rear_Toe2_02 0.000000 0.000000 0.000000 0.000000 0.000000 0.000000 10.000000 
Rear_Toe2_03 0.000000 0.000000 0.000000 0.000000 0.000000 0.000000 10.000000 
Rear_Toe3_02 0.000000 0.000000 0.000000 0.000000 0.000000 0.000000 10.000000 
Rear_Toe3_03 0.000000 0.000000 0.000000 0.000000 0.000000 0.000000 10.000000 
Back_Bone 0.000000 0.000000 0.000000 0.000000 0.000000 0.000000 10.000000 
Head 0.000000 0.000000 0.000000 0.000000 0.000000 0.000000 10.000000 
Motor_Bone 0.000000 0.000000 0.000000 0.000000 0.000000 0.000000 10.000000 
Ping_Mechanism 0.000000 0.000000 0.000000 0.000000 0.000000 0.000000 10.000000 
BN_LookIK 0.000000 0.000000 0.000000 0.000000 0.000000 0.000000 10.000000 
bottomMouth 0.000000 0.000000 0.000000 0.000000 0.000000 0.000000 10.000000 
L_Mouth01 0.000000 0.000000 0.000000 0.000000 0.000000 0.000000 10.000000 
L_mouthFront 0.000000 0.000000 0.000000 0.000000 0.000000 0.000000 10.000000 
mouthGun 0.000000 0.000000 0.000000 0.000000 0.000000 0.000000 10.000000 
R_Mouth01 0.000000 0.000000 0.000000 0.000000 0.000000 0.000000 10.000000 
R_mouthFront 0.000000 0.000000 0.000000 0.000000 0.000000 0.000000 10.000000 
TopMouth 0.000000 0.000000 0.000000 0.000000 0.000000 0.000000 10.000000 
weapon_bone 0.000000 0.000000 0.000000 0.000000 0.000000 0.000000 10.000000 
#Beginning of Data. Separated by tabs
#Fr	Tx	Ty	Tz	Rx	Ry	Rz	SF
[Pinger_Root]
44 0.000000 0.000000 0.000000 -0.000075 -0.000000 -0.000020 0.000000
45 0.000000 0.000000 0.000000 -0.000075 -0.000000 -0.000020 0.000000
46 0.000000 0.000000 0.000000 -0.000075 -0.000000 -0.000020 0.000000
[Pelvis]
44 -0.000007 -149.995789 2639.689941 153.421494 -87.713806 -160.753281 2643.947998
45 -0.000007 -154.022156 2666.083740 153.556000 -87.715782 -160.887833 2670.529053
46 -0.000007 -159.565048 2695.604736 153.690643 -87.717499 -161.022430 2700.323486
[L_Hip]
44 5.766392 125.831482 872.656799 -101.949867 -81.158203 9.889584 881.701050
45 5.766392 125.831482 872.656799 -101.949867 -81.158203 9.889584 881.701050
46 5.766392 125.831482 872.656799 -101.949867 -81.158203 9.889584 881.701050
[R_Hip]
44 5.765438 125.836372 -872.654907 -176.915329 69.250870 -95.642792 881.699829
45 5.765438 125.836372 -872.654907 -176.915329 69.250870 -95.642792 881.699829
46 5.765438 125.836372 -872.654907 -176.915329 69.250870 -95.642792 881.699829
[Rear_Leg01]
44 -192.298416 -925.602966 -0.001907 -173.098007 0.310645 -104.725433 945.367432
45 -192.298416 -925.602966 -0.001907 -173.192307 0.299186 -105.003494 945.367432
46 -192.298416 -925.602966 -0.001907 -173.335739 0.279921 -105.440269 945.367432
[Spine1]
44 290.604584 5.007505 0.000477 7.587862 0.018250 29.302052 290.647736
45 290.604584 5.007505 0.000477 7.587863 0.018081 29.304609 290.647736
46 290.604584 5.007505 0.000477 7.587864 0.017912 29.307158 290.647736
[L_Leg01]
44 761.932007 -0.002384 -0.069261 79.138496 -66.554932 -48.173260 761.932068
45 761.932007 -0.002384 -0.069261 80.166519 -65.685539 -49.310616 761.932068
46 761.932007 -0.002384 -0.069261 81.120331 -64.808235 -50.374123 761.932068
[L_Leg02]
44 1441.140503 -0.000954 -0.000715 12.761875 0.915336 -130.673019 1441.140503
45 1441.140503 -0.000954 -0.000715 12.707796 0.846025 -129.289963 1441.140503
46 1441.140503 -0.000954 -0.000715 12.637711 0.759330 -127.658134 1441.140503
[L_Leg03]
44 1686.963989 -0.000715 -0.000954 -0.065461 0.036344 127.905540 1686.963989
45 1686.963989 -0.000715 -0.000954 -0.065021 0.035044 127.570641 1686.963989
46 1686.963989 -0.000715 -0.000954 -0.064574 0.033746 127.235741 1686.963989
[L_Foot]
44 3041.570068 -30.715107 11.297464 -30.945293 31.575674 19.825970 3041.746094
45 3041.570068 -30.715107 11.297464 -30.840712 31.792721 19.726828 3041.746094
46 3041.570068 -30.715107 11.297464 -30.828466 32.110424 19.393599 3041.746094
[L_Toe1_01]
44 -188.216690 -224.732346 -21.137953 73.295082 -5.155910 -172.288544 293.899567
45 -188.216690 -224.732346 -21.137953 73.295219 -5.157234 -172.291336 293.899567
46 -188.216690 -224.732346 -21.137953 73.295372 -5.158559 -172.294113 293.899567
[L_Toe2_01]
44 200.746536 -219.926590 148.838394 -73.055321 -16.184254 -54.228603 332.896027
45 200.746536 -219.926590 148.838394 -73.055374 -16.182072 -54.225037 332.896027
46 200.746536 -219.926590 148.838394 -73.055412 -16.179886 -54.221462 332.896027
[L_Toe3_01]
44 188.832520 -219.859131 -191.078659 -125.382286 46.010544 -59.816700 347.140900
45 188.832520 -219.859131 -191.078659 -125.378571 46.008656 -59.810020 347.140900
46 188.832520 -219.859131 -191.078659 -125.374802 46.006775 -59.803314 347.140900
[planeAlignerLeft]
44 -38.177044 -486.525787 -95.556488 -49.395638 -81.988441 -51.604572 497.288513
45 -38.134132 -486.511261 -95.548233 -49.393074 -81.987564 -51.607162 497.269440
46 -38.091217 -486.496704 -95.539978 -49.390415 -81.986656 -51.609791 497.250336
[L_Toe1_02]
44 413.761139 0.000477 0.000000 0.001396 -24.390890 0.001396 413.761139
45 413.761139 0.000477 0.000000 0.001396 -24.393679 0.001396 413.761139
46 413.761139 0.000477 0.000000 0.001396 -24.396473 0.001396 413.761139
[L_Toe1_03]
44 464.317322 0.000358 -0.000089 0.002640 37.215652 0.002640 464.317322
45 464.317322 0.000358 -0.000089 0.002640 37.219879 0.002640 464.317322
46 464.317322 0.000358 -0.000089 0.002641 37.224110 0.002641 464.317322
[L_Toe2_02]
44 342.235809 -0.000477 0.000238 0.001181 -76.966408 0.001181 342.235809
45 342.235809 -0.000477 0.000238 0.001181 -76.964035 0.001181 342.235809
46 342.235809 -0.000477 0.000238 0.001181 -76.961578 0.001181 342.235809
[L_Toe2_03]
44 420.210846 -0.000715 0.000000 -179.995056 80.147835 -179.991547 420.210846
45 420.210846 -0.000715 0.000000 -179.995056 80.153374 -179.991547 420.210846
46 420.210846 -0.000715 0.000000 -179.995056 80.158928 -179.991547 420.210846
[L_Toe3_02]
44 329.270111 0.000954 0.000000 0.001176 -82.874649 0.001176 329.270111
45 329.270111 0.000954 0.000000 0.001176 -82.871925 0.001176 329.270111
46 329.270111 0.000954 0.000000 0.001176 -82.869278 0.001176 329.270111
[L_Toe3_03]
44 439.137451 -0.001907 0.000954 179.990555 66.973396 179.997681 439.137451
45 439.137451 -0.001907 0.000954 179.990555 66.977898 179.997681 439.137451
46 439.137451 -0.001907 0.000954 179.990555 66.982414 179.997681 439.137451
[planeLockWeightLeft]
44 999.998840 0.098057 0.076003 -0.011826 -0.004376 0.005620 999.998901
45 999.998840 0.098059 0.076002 -0.011826 -0.004376 0.005620 999.998901
46 999.998840 0.098062 0.076002 -0.011826 -0.004376 0.005620 999.998901
[R_Leg01]
44 761.455627 -0.001907 -0.000358 62.446598 -57.788498 81.113899 761.455688
45 761.455627 -0.001907 -0.000358 62.889458 -56.960453 80.459396 761.455688
46 761.455627 -0.001907 -0.000358 63.305698 -56.129749 79.830521 761.455688
[R_Leg02]
44 1441.140625 0.000000 -0.000238 -16.434683 -4.597402 -120.604149 1441.140625
45 1441.140625 0.000000 -0.000238 -16.701975 -4.463449 -118.881767 1441.140625
46 1441.140625 0.000000 -0.000238 -17.012470 -4.294366 -116.868675 1441.140625
[R_Leg03]
44 1686.963989 0.000954 0.001431 0.103512 -0.062025 138.543243 1686.963989
45 1686.963989 0.000954 0.001431 0.101258 -0.060377 137.980057 1686.963989
46 1686.963989 0.000954 0.001431 0.098987 -0.058751 137.416870 1686.963989
[R_Foot]
44 3041.560059 -30.531288 -11.204481 26.526680 -26.641968 18.969711 3041.734131
45 3041.560059 -30.531288 -11.204481 26.412844 -26.968391 18.679871 3041.734131
46 3041.560059 -30.531288 -11.204481 26.300539 -27.295338 18.389917 3041.734131
[planeAlignerRight]
44 -223.174026 -563.893616 -76.363678 -172.216293 -81.431931 69.619461 611.239746
45 -223.128723 -563.871826 -76.358200 -172.216263 -81.431870 69.619392 611.202454
46 -223.083405 -563.849915 -76.352722 -172.216248 -81.431885 69.619385 611.165039
[R_Toe1_01]
44 -188.383347 -224.864899 21.052242 102.435486 -2.583232 -171.803329 294.101532
45 -188.383347 -224.864899 21.052242 102.435776 -2.582367 -171.809006 294.101532
46 -188.383347 -224.864899 21.052242 102.436073 -2.581502 -171.814651 294.101532
[R_Toe2_01]
44 200.637817 -220.002121 -148.787384 -125.816376 12.716671 -63.856018 332.857574
45 200.637817 -220.002121 -148.787384 -125.815872 12.714714 -63.851326 332.857574
46 200.637817 -220.002121 -148.787384 -125.815353 12.712744 -63.846600 332.857574
[R_Toe3_01]
44 188.606735 -220.092957 191.126343 -66.918579 -38.571175 -60.859875 347.192566
45 188.606735 -220.092957 191.126343 -66.921051 -38.570030 -60.852806 347.192566
46 188.606735 -220.092957 191.126343 -66.923538 -38.568890 -60.845737 347.192566
[planeLockWeightRight]
44 999.999329 0.000000 0.076008 -0.011823 -0.004379 -0.000027 999.999329
45 999.999329 0.000000 0.076008 -0.011823 -0.004379 -0.000027 999.999329
46 999.999329 0.000000 0.076008 -0.011823 -0.004379 -0.000027 999.999329
[R_Toe1_02]
44 413.762085 0.000477 -0.000119 0.001386 -25.729839 0.001386 413.762085
45 413.762085 0.000477 -0.000119 0.001386 -25.733847 0.001386 413.762085
46 413.762085 0.000477 -0.000119 0.001386 -25.737848 0.001386 413.762085
[R_Toe1_03]
44 464.317810 0.000000 0.001088 0.003139 46.087215 0.003139 464.317810
45 464.317810 0.000000 0.001088 0.003139 46.091373 0.003139 464.317810
46 464.317810 0.000000 0.001088 0.003139 46.095516 0.003139 464.317810
[R_Toe2_02]
44 342.234741 -0.000954 0.000238 -0.002342 -75.415199 -0.002342 342.234741
45 342.234741 -0.000954 0.000238 -0.002342 -75.413368 -0.002342 342.234741
46 342.234741 -0.000954 0.000238 -0.002342 -75.411537 -0.002342 342.234741
[R_Toe2_03]
44 420.210846 0.000715 -0.000268 -179.983826 85.431557 -179.987335 420.210846
45 420.210846 0.000715 -0.000268 -179.983826 85.433960 -179.987335 420.210846
46 420.210846 0.000715 -0.000268 -179.983826 85.436104 -179.987320 420.210846
[R_Toe3_02]
44 329.270355 -0.000477 -0.000954 0.001176 -82.651085 0.001176 329.270355
45 329.270355 -0.000477 -0.000954 0.001176 -82.650436 0.001176 329.270355
46 329.270355 -0.000477 -0.000954 0.001176 -82.649796 0.001176 329.270355
[R_Toe3_03]
44 439.137939 0.000238 0.001431 -179.998795 67.819473 -179.995224 439.137939
45 439.137939 0.000238 0.001431 -179.998795 67.826118 -179.995224 439.137939
46 439.137939 0.000238 0.001431 -179.998795 67.832726 -179.995224 439.137939
[Rear_Leg02]
44 1162.777710 -0.029802 0.005960 6.503518 -2.009675 -107.693733 1162.777710
45 1162.777710 -0.029802 0.005960 6.502025 -2.062693 -107.416710 1162.777710
46 1162.777710 -0.029802 0.005960 6.500273 -2.115704 -107.139664 1162.777710
[Rear_Leg03]
44 607.192505 -0.013351 -0.073195 0.010395 -0.005302 70.402740 607.192505
45 607.192505 -0.013351 -0.073195 0.010398 -0.005295 70.330093 607.192505
46 607.192505 -0.013351 -0.073195 0.010401 -0.005289 70.257446 607.192505
[Rear_Leg04]
44 995.874512 -0.020504 -0.011921 -0.040837 -0.017360 71.301590 995.874573
45 995.874512 -0.020504 -0.011921 -0.040804 -0.017438 71.082626 995.874573
46 995.874512 -0.020504 -0.011921 -0.040771 -0.017516 70.863663 995.874573
[Rear_Foot]
44 3096.176270 -0.067472 -0.041425 -22.694384 82.049858 -174.344223 3096.176270
45 3096.176270 -0.067472 -0.041425 -23.108805 82.132042 -175.050247 3096.176270
46 3096.176270 -0.067472 -0.041425 -23.535030 82.213585 -175.768036 3096.176270
[planeAlignerCenter]
44 -8.681030 -181.175674 -664.081543 12.240772 -0.001473 179.998184 688.407043
45 -8.681068 -181.360962 -664.061523 12.240769 -0.001473 179.998184 688.436584
46 -8.681107 -181.546234 -664.041504 12.240772 -0.001473 179.998184 688.466064
[Rear_Toe1_01]
44 0.653352 83.966492 -371.173737 0.703136 30.823772 91.069908 380.553192
45 0.653352 83.966492 -371.173737 0.704073 30.824734 91.070732 380.553192
46 0.653352 83.966492 -371.173737 0.705005 30.825703 91.071556 380.553192
[Rear_Toe2_01]
44 178.200760 -294.826019 -362.060547 -8.046598 29.246714 -68.179642 499.765686
45 178.200760 -294.826019 -362.060547 -8.047136 29.243725 -68.186592 499.765686
46 178.200760 -294.826019 -362.060547 -8.047676 29.240744 -68.193550 499.765686
[Rear_Toe3_01]
44 -153.359680 -308.780914 -362.060852 3.658370 28.009609 -111.911903 499.952881
45 -153.359680 -308.780914 -362.060852 3.658600 28.005581 -111.908997 499.952881
46 -153.359680 -308.780914 -362.060852 3.658828 28.001553 -111.906105 499.952881
[planeLockWeightCenter]
44 1000.000122 0.000209 0.076253 -0.011814 -0.004373 -0.000015 1000.000122
45 1000.000122 0.000207 0.076253 -0.011814 -0.004373 -0.000015 1000.000122
46 1000.000122 0.000205 0.076253 -0.011814 -0.004373 -0.000015 1000.000122
[Rear_Toe1_02]
44 379.707825 0.194073 0.000477 -0.002651 -32.413944 -0.002651 379.707855
45 379.707825 0.194073 0.000477 -0.002651 -32.413757 -0.002651 379.707855
46 379.707825 0.194073 0.000477 -0.002651 -32.413559 -0.002651 379.707855
[Rear_Toe1_03]
44 500.129700 0.165701 0.000119 -179.980576 86.270958 -179.984100 500.129761
45 500.129700 0.165701 0.000119 -179.980698 86.247826 -179.984192 500.129761
46 500.129700 0.165701 0.000119 -179.980804 86.224983 -179.984299 500.129761
[Rear_Toe2_02]
44 340.494507 0.000238 -0.000954 0.001199 -66.480667 0.001199 340.494507
45 340.494507 0.000238 -0.000954 0.001199 -66.456985 0.001199 340.494507
46 340.494507 0.000238 -0.000954 0.001199 -66.433319 0.001199 340.494507
[Rear_Toe2_03]
44 433.103577 0.000000 0.000238 0.005381 64.803360 0.005381 433.103546
45 433.103577 0.000000 0.000238 0.005374 64.773567 0.005374 433.103546
46 433.103577 0.000000 0.000238 0.005368 64.743782 0.005368 433.103546
[Rear_Toe3_02]
44 340.494141 -0.000358 -0.000477 -0.002395 -61.903179 -0.002395 340.494171
45 340.494141 -0.000358 -0.000477 -0.002395 -61.875805 -0.002395 340.494171
46 340.494141 -0.000358 -0.000477 -0.002395 -61.848450 -0.002395 340.494171
[Rear_Toe3_03]
44 433.103577 0.001431 -0.000238 -0.000306 58.567146 -0.003938 433.103546
45 433.103577 0.001431 -0.000238 -0.000303 58.536156 -0.003936 433.103546
46 433.103577 0.001431 -0.000238 -0.000301 58.505188 -0.003934 433.103546
[Back_Bone]
44 1312.175781 -701.934692 0.000954 1.470029 -0.131745 -78.489532 1488.125488
45 1312.175781 -701.934692 0.000954 1.470231 -0.130823 -78.019264 1488.125488
46 1312.175781 -701.934692 0.000954 1.470440 -0.129903 -77.549011 1488.125488
[Head]
44 1406.159424 809.709290 0.001431 -2.168062 2.424172 -0.603304 1622.625488
45 1406.159424 809.709290 0.001431 -2.168062 2.424172 -0.603304 1622.625488
46 1406.159424 809.709290 0.001431 -2.168062 2.424172 -0.603304 1622.625488
[Motor_Bone]
44 1158.364380 -417.834747 0.000477 -0.096687 0.077864 -123.725342 1231.419434
45 1158.364380 -417.834747 0.000477 -0.096879 0.077626 -124.007103 1231.419434
46 1158.364380 -417.834747 0.000477 -0.097070 0.077388 -124.288834 1231.419434
[Ping_Mechanism]
44 1352.346191 583.501892 -10.310523 0.000103 -0.000053 82.120995 1472.895508
45 1355.681763 607.471130 -10.311174 0.000103 -0.000053 82.120995 1485.597656
46 1356.868652 615.881287 -10.312004 0.000103 -0.000053 82.120995 1490.137085
[BN_LookIK]
44 193.241119 1380.371704 -0.002861 0.000000 89.965736 -31.038179 1393.832153
45 193.241119 1380.371704 -0.002861 0.000000 89.965736 -31.038179 1393.832153
46 193.241119 1380.371704 -0.002861 0.000000 89.965736 -31.038179 1393.832153
[bottomMouth]
44 -435.092926 615.759399 -0.000954 -0.000022 0.000016 73.527184 753.966492
45 -435.092926 615.759399 -0.000954 -0.000022 0.000016 73.527184 753.966492
46 -435.092926 615.759399 -0.000954 -0.000022 0.000016 73.527184 753.966492
[L_Mouth01]
44 554.440979 7.658243 838.222046 150.204178 23.759130 109.605339 1005.027161
45 554.440979 7.658243 838.222046 150.204178 23.759130 109.605339 1005.027161
46 554.440979 7.658243 838.222046 150.204178 23.759130 109.605339 1005.027161
[L_mouthFront]
44 551.629089 934.514771 339.150421 0.000081 2.804060 79.119301 1136.941284
45 551.629089 934.514771 339.150421 0.000081 2.804060 79.119301 1136.941284
46 551.629089 934.514771 339.150421 0.000081 2.804060 79.119301 1136.941284
[mouthGun]
44 55.332661 1627.420898 0.000000 0.000023 0.000009 -11.038128 1628.361328
45 55.332661 1627.420898 0.000000 0.000023 0.000009 -11.038128 1628.361328
46 55.332661 1627.420898 0.000000 0.000023 0.000009 -11.038128 1628.361328
[R_Mouth01]
44 554.442383 7.659197 -838.223938 29.795891 -23.759109 109.605331 1005.029541
45 554.442383 7.659197 -838.223938 29.795891 -23.759109 109.605331 1005.029541
46 554.442383 7.659197 -838.223938 29.795891 -23.759109 109.605331 1005.029541
[R_mouthFront]
44 551.629089 934.514282 -339.151367 0.000029 -2.803930 79.119133 1136.941162
45 551.629089 934.514282 -339.151367 0.000029 -2.803930 79.119133 1136.941162
46 551.629089 934.514282 -339.151367 0.000029 -2.803930 79.119133 1136.941162
[TopMouth]
44 461.269867 -56.106091 -0.008583 -0.000059 -0.000268 92.025169 464.669525
45 461.269867 -56.106091 -0.008583 -0.000059 -0.000268 92.025169 464.669525
46 461.269867 -56.106091 -0.008583 -0.000059 -0.000268 92.025169 464.669525
[weapon_bone]
44 -987.239868 1448.372803 0.001431 0.000000 89.965736 -31.038221 1752.833740
45 -987.239868 1448.372803 0.001431 0.000000 89.965736 -31.038221 1752.833740
46 -987.239868 1448.372803 0.001431 0.000000 89.965736 -31.038221 1752.833740
